<?xml version="1.0" encoding="utf-8"?>
<!-- Generator: Adobe Illustrator 24.0.0, SVG Export Plug-In . SVG Version: 6.00 Build 0)  -->
<svg version="1.1" id="Layer_1" xmlns="http://www.w3.org/2000/svg" xmlns:xlink="http://www.w3.org/1999/xlink" x="0px" y="0px"
	 viewBox="0 0 1566 277" style="enable-background:new 0 0 1566 277;" xml:space="preserve">
<style type="text/css">
	.st0{fill:#13604A;}
</style>
<path d="M1198.8,1370.2c3.3-1.2,6.5-2.5,9.8-3.8l-64.2,21.8C1162.8,1382.9,1181,1376.9,1198.8,1370.2z"/>
<g>
	<path class="st0" d="M510.4,61.5c8.1,3.3,14.6,8.6,19.4,15.9l-4.2-24l40.4-7.1l23.4,132.4l-40.4,7.1l-4.2-24
		c-2.1,8.5-6.4,15.7-12.8,21.6c-6.5,5.9-14.8,9.7-24.9,11.5c-10.9,1.9-21.2,0.9-30.8-3c-9.6-3.9-17.8-10.6-24.6-20
		c-6.8-9.4-11.4-21-13.8-34.8c-2.5-13.9-2.1-26.4,1.1-37.5c3.2-11.1,8.6-20.1,16.3-27.1c7.7-7,17-11.4,27.9-13.4
		C493.2,57.5,502.3,58.2,510.4,61.5z M482.9,104.8c-4.3,6.6-5.6,15-3.8,25.1c1.8,10.1,5.8,17.6,12.1,22.3c6.3,4.8,13.8,6.4,22.5,4.8
		c8.5-1.5,15-5.7,19.5-12.5c4.4-6.8,5.8-15.1,4-24.9c-1.8-10-5.9-17.4-12.4-22.2c-6.5-4.8-14-6.5-22.5-5
		C493.7,94.1,487.2,98.2,482.9,104.8z"/>
	<path class="st0" d="M705.5,56.6c9.6,3.9,17.8,10.6,24.6,19.9s11.4,21,13.9,34.9c2.4,13.8,2.1,26.2-1.1,37.4
		c-3.2,11.2-8.6,20.2-16.2,27.2c-7.7,7-17,11.4-27.9,13.4c-10.1,1.8-19.2,1-27.3-2.3c-8.1-3.3-14.5-8.6-19.2-15.9l15.4,87.1
		l-40.6,7.2L592.5,69.8l40.6-7.2l4.2,24c1.9-8.5,6.1-15.7,12.6-21.6c6.5-5.9,14.8-9.7,24.9-11.5C685.7,51.6,696,52.7,705.5,56.6z
		 M648.5,103.8c-4.4,6.7-5.8,15.1-4,25.1c1.7,9.8,5.8,17.2,12.3,22.1c6.5,4.9,14,6.6,22.6,5.1c8.7-1.5,15.2-5.6,19.5-12.2
		c4.3-6.6,5.6-15,3.8-25.1c-1.8-10.1-5.8-17.6-12.1-22.3c-6.3-4.8-13.8-6.4-22.5-4.8C659.5,93,653,97.1,648.5,103.8z"/>
	<path class="st0" d="M864.9,56.6c9.6,3.9,17.8,10.6,24.6,19.9s11.4,21,13.9,34.9c2.4,13.8,2.1,26.2-1.1,37.4
		c-3.2,11.2-8.6,20.2-16.2,27.2c-7.7,7-17,11.4-27.9,13.4c-10.1,1.8-19.2,1-27.3-2.3c-8.1-3.3-14.5-8.6-19.2-15.9l15.4,87.1
		l-40.6,7.2L751.9,69.8l40.6-7.2l4.2,24c1.9-8.5,6.1-15.7,12.6-21.6c6.5-5.9,14.8-9.7,24.9-11.5C845.1,51.6,855.3,52.7,864.9,56.6z
		 M807.9,103.8c-4.4,6.7-5.8,15.1-4,25.1c1.7,9.8,5.8,17.2,12.3,22.1c6.5,4.9,14,6.6,22.6,5.1c8.7-1.5,15.2-5.6,19.5-12.2
		c4.3-6.6,5.6-15,3.8-25.1c-1.8-10.1-5.8-17.6-12.1-22.3c-6.3-4.8-13.8-6.4-22.5-4.8C818.9,93,812.4,97.1,807.9,103.8z"/>
	<path class="st0" d="M1009.6,58.4c11.3,3.6,20.9,10.1,28.6,19.3c7.7,9.2,12.8,20.7,15.3,34.5c2.4,13.8,1.6,26.3-2.5,37.6
		c-4.1,11.3-10.9,20.6-20.3,27.9c-9.4,7.3-20.7,12.1-33.8,14.4c-13.1,2.3-25.4,1.7-36.8-2s-21-10-28.7-19.3
		c-7.7-9.2-12.8-20.7-15.3-34.5c-2.4-13.8-1.6-26.3,2.5-37.6c4.1-11.3,10.9-20.6,20.4-27.9s20.8-12.1,33.9-14.4
		C986.1,54.1,998.3,54.7,1009.6,58.4z M961,103.4c-4.3,6.6-5.5,15.1-3.7,25.7c1.9,10.6,5.9,18.2,12.2,22.8c6.3,4.6,13.3,6.2,21,4.9
		c7.8-1.4,13.8-5.3,18-11.7c4.2-6.5,5.4-15,3.6-25.6c-1.9-10.6-5.9-18.3-12.1-22.9c-6.2-4.7-13.2-6.4-20.9-5
		C971.4,92.9,965.3,96.9,961,103.4z"/>
	<path class="st0" d="M1094.4,11.3l31,175.6l-40.6,7.2l-31-175.6L1094.4,11.3z"/>
	<path class="st0" d="M1226.8,58.4c11.3,3.6,20.9,10.1,28.6,19.3c7.7,9.2,12.8,20.7,15.3,34.5c2.4,13.8,1.6,26.3-2.5,37.6
		c-4.1,11.3-10.9,20.6-20.3,27.9c-9.4,7.3-20.7,12.1-33.8,14.4c-13.1,2.3-25.4,1.7-36.8-2s-21-10-28.7-19.3
		c-7.7-9.2-12.8-20.7-15.3-34.5c-2.4-13.8-1.6-26.3,2.5-37.6c4.1-11.3,10.9-20.6,20.4-27.9s20.8-12.1,33.9-14.4
		C1203.3,54.1,1215.5,54.7,1226.8,58.4z M1178.2,103.4c-4.3,6.6-5.5,15.1-3.7,25.7c1.9,10.6,5.9,18.2,12.2,22.8
		c6.3,4.6,13.3,6.2,21,4.9c7.8-1.4,13.8-5.3,18-11.7c4.2-6.5,5.4-15,3.6-25.6c-1.9-10.6-5.9-18.3-12.1-22.9
		c-6.2-4.7-13.2-6.4-20.9-5C1188.6,92.9,1182.5,96.9,1178.2,103.4z"/>
	<path class="st0" d="M1309.2,63.5l46.1,75.6l15.4-86.4l44.9-7.9l-48.1,210.1l-44.6,7.9l19.1-73.6l-78-117.7L1309.2,63.5z"/>
	<path class="st0" d="M1565.1,120.2l-91.9,16.2c2.2,9.9,6,16.6,11.4,20.1c5.4,3.5,11.6,4.7,18.7,3.4c6-1.1,10.7-3.4,14.2-7.1
		c3.4-3.7,5.4-8,5.8-13l43-7.6c-0.1,9.6-2.4,18.7-7,27c-4.6,8.4-11,15.5-19.3,21.3c-8.3,5.8-18,9.7-29,11.6c-13,2.3-25,1.6-36-2.1
		c-11-3.7-20.3-10.2-27.8-19.5c-7.5-9.3-12.5-20.8-14.9-34.6c-2.5-13.9-1.8-26.5,2-37.7c3.8-11.2,10.3-20.4,19.5-27.7
		c9.2-7.2,20.2-12,33.2-14.3c13.1-2.3,25.2-1.7,36.1,2c10.9,3.6,20,9.8,27.1,18.6c7.2,8.8,11.9,19.5,14.1,32.1
		C1565,112.4,1565.2,116.1,1565.1,120.2z M1511.8,91.8c-5.6-3.5-12-4.6-19.1-3.4c-7.4,1.3-13.2,4.6-17.3,9.9
		c-4.1,5.3-5.8,12.3-4.9,20.9l51.7-9.1C1520.9,101.4,1517.4,95.3,1511.8,91.8z"/>
</g>
<path class="st0" d="M329.6,235l0.1-0.1L242.5,64.4l-0.1,0.1c-10.9-18.9-26.4-34.8-45.1-46.1C177.4,6.3,154.5,0,131.2,0
	C66.8,0,12.9,51,2.2,113.4c-7.1,41,3.7,85.2,30.5,117.1s69.6,50.1,110.9,45.6c46.5-5.1,77.3-28.4,122.2-51.9
	c-6.8-14-13.6-27.9-20.4-41.9c-38.5,18.5-66.9,43.5-108.8,45.9c-23.5,1.3-46.1-6.8-62.5-24c-26.3-27.7-28.8-70.7-13-104.3
	c30.3-64.5,125.3-58.3,157.9,0.7l0,0L305,268.1l8-4.1l0,0.1l25-12.8L329.6,235z"/>
</svg>
